Patient4_TMGait_0pt7_01_left_11_EMG.mot
version=1
nRows=40
nColumns=33
inDegrees=no
endheader
time	1LAddLong	2LGlutMax	3LGlutMed	4LIliopsoas	5LSemiMemb	6LBicFemLong	7LRecFem	8LVastMed	9LVastLat	10LGasMed	11LTibAnt	12lTibPost	13LPeroneusLong	14LSol	15LExtDigLong	16LFlexDigLong	17RAddLong	18RGlutMax	19RGlutMed	20RIliopsoas	21RSemiMemb	22RBicFemLong	23RRecFem	24RVastMed	25RVastLat	26RGasMed	27RTibAnt	28RTibPost	29RPeroneusLong	30RSol	31RExtDigLong	32RFlexDigLong
12.65	0.004425	0.10269	-0.026703	-0.006714	-0.018311	-0.041656	-0.000763	0.002747	0.21744	-0.066681	-0.014496	-0.005798	0.049744	0.12436	0.037994	0.029907	-0.023804	0.080261	0.22095	-0.062256	0.01358	0.034485	0.71518	-0.46265	-0.55893	0.037384	0.71167	-0.013123	0.14633	-0.56992	-0.006256	0.021057
12.651	0.005341	0.07431	-0.053253	-0.002594	-0.006104	-0.01297	0.00351	0.028992	0.19806	-0.013885	0.028687	-0.009155	0.12756	0.15228	0.93781	0.023651	-0.046692	0.15198	0.016785	-0.02533	0.022736	0.066986	-0.22095	-0.17914	-0.51193	0.010529	1.2469	-0.01236	0.040894	-0.34805	-0.003662	0.011139
12.652	0.005341	0.06424	-0.050812	-0.001678	-0.005951	-0.023346	0.025635	0.038147	0.19272	0.01358	0.027618	-0.006561	0.15137	0.25848	-0.19394	0.025177	-0.065613	0.24887	-0.010223	-0.078125	0.04837	0.076752	-1.1388	0.24353	-0.45639	0.032654	0.46951	-0.011292	0.062103	0.032349	-0.011902	0.009155
12.653	0.012054	0.036469	-0.030518	0.020905	-0.018616	-0.019684	0.012207	0.005035	0.18845	0.048065	0.01358	-0.00412	0.083466	0.30716	-0.09201	0.023193	-0.027618	0.25787	0.4364	-0.17303	0.007477	-0.010223	-0.96146	0.62225	-0.76218	0.036926	-0.074768	-0.013123	0.01236	0.21896	-0.004578	0.00351
12.654	0.007324	0.038452	-0.042419	-0.001831	-0.055847	-0.039825	0.025635	0.003204	0.18265	0.037231	0.023956	-0.007019	0.044556	0.13611	-0.61432	0.015717	0.00412	0.19882	0.32593	-0.070038	-0.02655	-0.081329	-0.41977	0.61783	-0.64911	-0.004883	-0.26581	0.026855	-0.17044	0.15152	-0.003357	0.002441
12.655	0.016632	-0.000458	-0.075073	-0.00824	-0.030823	-0.081787	0.024414	0.00412	0.16388	0.00061	-0.017853	-0.005035	0.04837	0.076141	-0.35263	0.009918	0.01358	0.22888	0.11566	0.037689	-0.059204	-0.10803	-0.15198	0.36758	-0.14084	-0.006104	-0.71899	0.014648	-0.10162	-0.1207	-0.002289	0.007324
12.656	0.011292	-0.018616	-0.10574	-0.011597	-0.030365	-0.077209	0.019226	0.004272	0.15045	-0.02533	-0.019684	0.00351	0.042877	0.14191	-0.28198	0.016022	0.013733	0.14511	-0.18677	0.062408	-0.072784	-0.12909	-0.16373	0.22324	0.14893	0.010376	-0.50934	0	-0.10819	-0.22903	-0.00412	0.006104
12.657	0.008698	-0.01236	-0.12222	0.013885	-0.014954	-0.054474	0.036469	0.005493	0.16022	-0.015717	0.029297	-0.006561	0.031281	0.084839	-0.18356	0.011292	-0.009766	0.10681	-0.16724	0.10422	-0.053711	-0.10407	-0.10696	0.24658	0.13123	0.005798	-0.013885	-0.007019	-0.24033	-0.22751	-0.004425	0.005493
12.658	0.013733	0.005341	-0.083618	0.0177	0.00412	-0.029602	0.002594	0.010071	0.14618	-0.052032	0.072327	-0.004578	0.031128	-0.1651	-0.17868	-0.002747	0.007629	0.11673	-0.085602	0.1416	-0.044556	-0.09201	0.027161	0.066681	0.037231	0.010681	0.17761	-0.011749	-0.020447	-0.33005	-0.005341	0.003662
12.659	0.015411	0.039063	-0.078583	0.018768	0.004883	-0.023193	0.012817	0.000916	0.16342	-0.066833	0.003815	-0.00351	0.054626	-0.25131	-0.12314	-0.003967	0.007629	0.15396	0.33188	0.030518	-0.049438	-0.076447	0.15167	0.008698	-0.044556	0.018921	0.23086	-0.00885	0.33173	-0.2124	-0.010986	0.001831
12.66	0.011139	0.027466	-0.065613	0.023041	0.007935	-0.026855	0.012207	0.003357	0.13596	-0.099487	-0.008545	-0.015411	0.029755	-0.15671	-0.042114	0.012665	-0.00946	0.098877	0.48767	-0.052185	-0.055847	-0.103	0.06012	0.042419	0.001068	0.018768	-0.039215	-0.009918	0.2713	-0.10849	-0.003967	0.002899
12.661	0.010834	0.014801	-0.007629	0.020752	0.012817	-0.016327	0.002747	0.004425	0.13718	-0.096741	0.008087	-0.001831	0.014954	-0.23148	-0.045471	0.00061	-0.008392	0.001526	0.30945	-0.034943	-0.018158	-0.07843	-0.098724	0.16876	0.018616	0.013428	-0.25116	-0.008545	0.12253	0.041504	-0.003357	0.00351
12.662	0.007782	0.039063	0.024414	0.016937	0.00473	-0.033417	0.008698	0.005798	0.13412	-0.070496	0.005646	-0.00473	0.021362	-0.29266	-0.023651	0.016632	0.006409	0.13748	0.0177	-0.08728	-0.024414	-0.06958	-0.054474	0.30563	-0.003662	-0.001678	-0.15549	-0.013275	0.043488	0.25787	-0.006409	-0.003967
12.663	0.007172	-0.00412	-0.03006	0.006104	0.00061	-0.059967	-0.002136	-0.000305	0.14694	-0.053406	0.005646	-0.005341	0.084991	-0.21988	0.041351	0.010834	0.008392	0.21301	0.093231	-0.06958	-0.032196	-0.072937	0.022736	0.2887	0.049133	-0.010376	-0.083618	-0.011139	0.056305	0.20462	-0.001221	-0.011292
12.664	0.008087	0.011292	-0.040741	0.001373	-0.012665	-0.095673	-0.004272	0.003662	0.1416	-0.010986	-0.018921	-0.009918	0.095978	-0.1709	0.076447	0.006866	0.018616	0.3122	-0.08316	-0.078278	-0.032959	-0.084686	0.079956	0.29816	0.053253	-0.008698	-0.10391	-0.008698	0.050507	-0.000763	0.006866	0.006866
12.665	0.014496	0.048218	-0.059357	0.00412	-0.036163	-0.090485	-0.001068	0.001831	0.12817	-0.013733	-0.04776	-0.004578	0.071564	0.021667	0.075226	-0.007019	0.019073	0.42038	-0.38177	0.002594	-0.059052	-0.11185	-0.010529	0.19989	-0.01358	-0.012207	-0.28976	-0.011749	0.065918	-0.024567	0.00061	-0.011597
12.666	0.016632	0.12726	-0.092773	0.002594	-0.010376	-0.049286	-0.002289	-0.001831	0.12573	-0.007782	-0.034027	-0.005798	0.04837	0.19379	0.042267	0.004578	-0.005341	0.46661	0.006409	0.13565	-0.11063	-0.095825	-0.224	0.13229	-0.052643	-0.016785	-0.3656	-0.013733	0.041351	0.15121	-0.007782	-0.009308
12.667	0.019531	0.1532	-0.11475	0.007782	-0.020599	-0.040131	-0.007477	0.003357	0.12421	-0.025482	-0.003662	-0.003662	0.022888	0.20859	0.056	-0.003052	0.003204	0.61081	0.49698	0.11047	-0.15808	-0.16983	-0.027161	0.054016	-0.018005	-0.016479	-0.050964	-0.016632	-0.054932	0.28336	-0.00412	-0.003357
12.668	0.021515	0.22659	-0.11948	0.008392	-0.034485	-0.024719	-0.010986	-0.001678	0.11795	-0.030975	0.051422	-0.008698	0.029907	-0.002899	0.076141	0.005493	0.019989	0.62439	0.52673	0.033569	-0.094604	-0.19852	0.066986	-0.1088	0.041962	-0.012207	0.12405	-0.012665	0.022125	0.4567	-0.007935	-0.010071
12.669	0.018158	0.28397	-0.063782	0.007629	-0.007629	-0.034943	0.010071	0.000763	0.10666	-0.02594	0.091858	-0.002289	0.041656	-0.005188	0.11139	0.002899	0.011902	0.57098	0.41275	-0.04425	0.024261	-0.19836	0.053711	-0.1857	0.091858	-0.019226	0.13687	-0.00885	0.027008	0.3688	-0.003052	-0.005798
12.67	0.019989	0.25238	-0.02243	0.009613	-0.005035	-0.045319	0.004272	0.00473	0.11505	-0.013123	0.07431	-0.008087	0.073853	0.095978	0.13168	0.011139	0.012054	0.41184	0.16556	0.009766	0.041962	-0.2005	0.075531	-0.31342	0.12344	-0.045929	0.26032	-0.001526	0.034943	0.30853	0.003357	-0.003357
12.671	0.019531	0.23285	-0.060883	0.002594	-0.002289	-0.048981	0.000916	-0.000458	0.11078	-0.02594	-0.045319	-0.010986	0.12665	0.013275	0.13687	0.001678	0.004578	0.19501	-0.43518	0.13245	0.019531	-0.16281	0.12573	-0.23697	0.14725	-0.036011	0.25284	0.001678	0.056	-0.007019	-0.004272	-0.00412
12.672	0.016022	0.22247	-0.12207	0.007782	-0.006866	-0.041809	0.001068	0.003052	0.11124	0.031738	-0.007324	-0.016174	0.11566	-0.095673	0.12161	-0.009308	0.006104	0.1091	-0.42206	0.17654	-0.000458	-0.10635	0.26032	-0.16663	0.25085	-0.034637	0.15533	-0.001831	0.044708	-0.22049	-0.005341	-0.009766
12.673	0.013885	0.23346	-0.15106	0.02182	-0.005188	-0.049896	0.007019	0.006409	0.103	0.065002	-0.045929	-0.013275	0.08316	-0.21713	0.014038	-0.011902	0.006714	0.040131	-0.39719	0.077667	-0.013123	-0.072021	0.47073	-0.093079	0.34332	-0.075073	0.08255	-0.004425	-0.10529	-0.15518	-0.002289	-0.009003
12.674	0.019379	0.27908	-0.16647	0.002136	-0.000916	-0.068359	0.001373	0.004272	0.10941	0.063782	-0.063477	-0.010834	0.072327	-0.14236	-0.046539	-0.015106	0.005646	-0.019989	-0.4985	-0.082703	-0.012512	0.020142	0.51071	-0.14389	0.3093	-0.088348	-0.087738	-0.014496	-0.11871	-0.34836	-0.005341	-0.008698
12.675	0.017395	0.31342	-0.16586	-0.001678	-0.005341	-0.071106	-0.015106	0.003357	0.11231	0.014496	-0.016937	-0.01297	0.03006	-0.047302	-0.005493	-0.00824	0.010071	-0.074158	-0.65704	-0.080109	-0.048523	0.12772	0.41351	-0.011597	0.11871	-0.070496	-0.56946	-0.022278	0.036163	-0.3067	-0.004578	-0.007172
12.676	0.01358	0.31815	-0.078583	-0.005341	-0.014038	-0.080414	-0.005188	0.001831	0.12268	-0.002136	0.033264	-0.012207	0.038757	0.011902	0.036011	-0.003967	-0.008087	-0.18967	-0.44067	0.002747	-0.049133	0.034485	0.47485	-0.024261	-0.37552	-0.051727	0.51834	-0.033417	-0.15198	0.27603	-0.005188	-0.00824
12.677	0.019684	0.345	-0.054321	0.006866	-0.014191	-0.046692	-0.019836	0.005798	0.10605	-0.016479	-0.099335	-0.014191	0.096436	0.06134	-0.000763	0.009766	-0.014954	-0.29434	-0.076599	0.013275	-0.031433	-0.019836	0.14572	0.016022	-0.42709	0.043945	1.3901	-0.005341	-0.18265	0.075531	-0.000916	-0.007172
12.678	0.014648	0.36087	0.013733	0.014648	-0.032806	-0.037994	-0.019989	0.007324	0.10757	-0.014648	-0.20462	-0.004272	0.10727	0.14725	0.014496	-0.001831	-0.004578	-0.23666	1.0767	0.055542	0.007935	-0.083466	0	-0.030823	0.10422	0.1297	1.4973	0.075073	-0.076904	-0.37125	-0.004883	-0.007935
12.679	0.01236	0.36423	0.090179	0.013733	-0.037384	-0.056915	-0.023651	0.008392	0.11307	-0.001831	-0.086365	-0.011139	0.017853	0.17014	0.19196	-0.010681	-0.010071	-0.17105	1.0341	0.043488	-0.030518	-0.10651	-0.20645	0.010986	0.15213	-0.014801	0.78156	0.008392	0.065308	-0.88043	-0.004578	0.00061
12.68	0.019226	0.40253	0.051575	0.004883	-0.008698	-0.082703	-0.035858	0.002594	0.12024	0.010834	-0.006866	-0.006866	-0.02243	0.047455	0.25452	0.000153	-0.035706	-0.16586	-0.30609	0.007477	-0.095825	-0.083618	-0.68848	0.068512	-0.13825	-0.016479	-0.61539	-0.011292	0.18509	-0.85724	-0.002899	0.001221
12.681	0.01297	0.44235	0.023193	0.004578	-0.001831	-0.061493	-0.022888	0.004578	0.11459	-0.027924	0.065613	-0.007629	0.058441	0.002136	0.21042	0.002594	-0.007324	-0.14435	-0.59189	-0.022736	-0.0383	-0.11993	-0.99121	-0.32181	-0.25482	0.006714	-1.5138	-0.00946	0.003204	-0.84274	-0.002136	-0.001831
12.682	0.008545	0.47394	-0.023346	0.014954	0.029907	-0.046539	-0.028992	0.006561	0.11383	-0.04364	0.1004	-0.006714	0.091858	0.032196	0.12695	0.002747	0.021362	-0.15152	0.37537	-0.10681	-0.066528	-0.1004	-0.7254	-0.69138	-0.2214	0.032806	-1.1314	-0.001984	-0.012665	-0.13473	-0.000916	0.011139
12.683	0.009155	0.51224	-0.036163	0.004425	0.014648	-0.036469	-0.033722	0.007935	0.10803	-0.041504	0.12192	-0.011444	0.033264	0.074005	0.097351	0.01236	0.004883	-0.23605	0.068512	-0.095825	-0.037231	-0.049133	-0.41412	-0.32761	-0.16251	0.024414	-0.77988	-0.001526	-0.18295	0.81146	-0.004272	0.004883
12.684	0.001678	0.50003	-0.048218	-0.000458	0.01236	-0.044098	-0.030975	0.001526	0.096588	0.002899	0.13031	-0.012054	0.031433	0.050507	-0.021973	0.006104	0.001831	-0.27069	0.020142	-0.06546	-0.023041	-0.11444	-0.24185	0.001526	-0.18158	0.021362	-0.32501	-0.008392	-0.12512	0.73044	0.002136	0.007629
12.685	0.001373	0.49423	-0.05661	-0.007629	0.011902	-0.031433	-0.0354	0.006104	0.083618	-0.010223	0.045319	-0.019226	0.054932	0.026703	0.10315	-0.003815	-0.009155	-0.29114	-0.03891	-0.041351	0.001526	-0.1149	-0.32425	0.17838	-0.10391	0.003204	0.38727	0.001984	-0.2034	1.0646	-0.00351	0.003815
12.686	-0.001221	0.51636	-0.054779	0.001373	-0.012665	-0.013733	-0.027008	0.00473	0.09613	0	-0.067749	-0.016479	0.066833	-0.14252	-0.061798	-0.018311	-0.007782	-0.33722	0.35019	-0.002289	-0.007629	-0.11749	-0.37323	0.19043	0.10223	-0.001221	1.245	0.000916	-0.26108	0.92087	-0.004883	0.002899
12.687	0.007477	0.5484	-0.076294	0.010529	-0.02594	-0.0383	-0.028534	0.00885	0.09964	-0.011749	-0.032349	-0.000305	0.055389	-0.29694	-0.029602	-0.002136	0.011292	-0.30319	0.24872	0.021057	-0.033112	-0.11429	-0.27039	0.090332	0.15091	-0.007324	1.252	-0.003357	-0.21042	0.49622	-0.003815	0.006714
12.688	0.011902	0.57846	-0.16892	0.005951	-0.025635	-0.046387	-0.037231	0.012665	0.094757	-0.031433	-0.007629	0.006256	0.050812	-0.34668	0.04303	-0.003967	0.022125	-0.26581	0.31113	0.036011	-0.050201	-0.11047	-0.31937	-0.14542	0.054169	-0.003967	0.12543	-0.005341	-0.048523	0.15595	-0.003967	0.001831
12.689	0.008087	0.58609	-0.26672	0.00351	-0.004578	-0.065918	-0.022278	0.005035	0.0914	-0.049438	0.004883	0.000458	0.048828	-0.271	0.090179	-0.002289	0.007172	-0.27588	0.14114	0.047455	-0.033417	-0.095673	-0.12146	-0.26032	-0.042267	-0.002441	-0.121	-0.003662	-0.010681	-0.45166	-0.005188	-0.007935
